{"title":"Planet Of The Apes (Hindi) - Blu-Ray - 720p ~JAGJIT639~","uid":6972114,"size":963904203,"categoryP":"video","categoryS":"hd___movies","magnet":"?xt=urn:btih:7bc1be110188025edb6a8b6e8763b49a508e3d85&amp;dn=Planet+Of+The+Apes+%28Hindi%29+-+Blu-Ray+-+720p+%7EJAGJIT639%7E&amp;tr=udp%3A%2F%2Ftracker.openbittorrent.com%3A80&amp;tr=udp%3A%2F%2Fopen.demonii.com%3A1337&amp;tr=udp%3A%2F%2Ftracker.coppersurfer.tk%3A6969&amp;tr=udp%3A%2F%2Fexodus.desync.com%3A6969","seeders":0,"leechers":1,"uploader":"MScope40","files":-1,"time":1327122430,"description":"General\n\nFormat : Matroska\nFormat version : Version 2\nFile size : 911 MiB\nDuration : 1h 55mn\nOverall bit rate : 1 107 Kbps\nEncoded date : UTC 2011-11-12 16:07:03\nWriting application : mkvmerge v4.6.0 ('Still Crazy After All These Years') built on Mar 10 2011 02:50:32\nWriting library : libebml v1.2.0 + libmatroska v1.1.0\n\nVideo\nID : 1\nFormat : AVC\nFormat/Info : Advanced Video Codec\nFormat profile : &lt;a class=&quot;__cf_email__&quot; href=&quot;/cdn-cgi/l/email-protection&quot; data-cfemail=&quot;c489a5adaa8488f7eaf5&quot;&gt;[email&amp;#160;protected]&lt;/a&gt;&lt;script cf-hash='f9e31' type=&quot;text/javascript&quot;&gt;\n/* &lt;![CDATA[ */!function(){try{var t=&quot;currentScript&quot;in document?document.currentScript:function(){for(var t=document.getElementsByTagName(&quot;script&quot;),e=t.length;e--;)if(t[e].getAttribute(&quot;cf-hash&quot;))return t[e]}();if(t&amp;&amp;t.previousSibling){var e,r,n,i,c=t.previousSibling,a=c.getAttribute(&quot;data-cfemail&quot;);if(a){for(e=&quot;&quot;,r=parseInt(a.substr(0,2),16),n=2;a.length-n;n+=2)i=parseInt(a.substr(n,2),16)^r,e+=String.fromCharCode(i);e=document.createTextNode(e),c.parentNode.replaceChild(e,c)}}}catch(u){}}();/* ]]&gt; */&lt;/script&gt;\nFormat settings, CABAC : Yes\nFormat settings, ReFrames : 4 frames\nCodec ID : V_MPEG4/ISO/AVC\nDuration : 1h 55mn\nBit rate : 975 Kbps\nWidth : 1 280 pixels\nHeight : 544 pixels\nDisplay aspect ratio : 2.35:1\nFrame rate : 23.976 fps\nColor space : YUV\nChroma subsampling : 4:2:0\nBit depth : 8 bits\nScan type : Progressive\nBits/(Pixel*Frame) : 0.058\nStream size : 788 MiB (86%)\n\nAudio\nID : 2\nFormat : MPEG Audio\nFormat version : Version 1\nFormat profile : Layer 3\nMode : Joint stereo\nMode extension : MS Stereo\nCodec ID : A_MPEG/L3\nCodec ID/Hint : MP3\nDuration : 1h 55mn\nBit rate mode : Constant\nBit rate : 128 Kbps\nChannel(s) : 2 channels\nSampling rate : 44.1 KHz\nCompression mode : Lossy\nStream size : 105 MiB (12%)\nWriting library : LAME3.98.2\n\n\n\nScreen Shot\n &lt;a href=&quot;\nhttp://postimg.com/53000/photo-52023.jpg&quot; rel=&quot;nofollow&quot; target=&quot;_NEW&quot;&gt;\nhttp://postimg.com/53000/photo-52023.jpg&lt;/a&gt;\n &lt;a href=&quot;\nhttp://postimg.com/53000/photo-52024.jpg&quot; rel=&quot;nofollow&quot; target=&quot;_NEW&quot;&gt;\nhttp://postimg.com/53000/photo-52024.jpg&lt;/a&gt;\n &lt;a href=&quot;\nhttp://postimg.com/53000/photo-52025.jpg&quot; rel=&quot;nofollow&quot; target=&quot;_NEW&quot;&gt;\nhttp://postimg.com/53000/photo-52025.jpg&lt;/a&gt;\n &lt;a href=&quot;\nhttp://postimg.com/53000/photo-52026.jpg&quot; rel=&quot;nofollow&quot; target=&quot;_NEW&quot;&gt;\nhttp://postimg.com/53000/photo-52026.jpg&lt;/a&gt;\n &lt;a href=&quot;\nhttp://postimg.com/53000/photo-52027.jpg&quot; rel=&quot;nofollow&quot; target=&quot;_NEW&quot;&gt;\nhttp://postimg.com/53000/photo-52027.jpg&lt;/a&gt;\n &lt;a href=&quot;\nhttp://postimg.com/53000/photo-52029.jpg&quot; rel=&quot;nofollow&quot; target=&quot;_NEW&quot;&gt;\nhttp://postimg.com/53000/photo-52029.jpg&lt;/a&gt;\n &lt;a href=&quot;\nhttp://postimg.com/53000/photo-52031.jpg&quot; rel=&quot;nofollow&quot; target=&quot;_NEW&quot;&gt;\nhttp://postimg.com/53000/photo-52031.jpg&lt;/a&gt;\n","torrent":{"xt":"urn:btih:7bc1be110188025edb6a8b6e8763b49a508e3d85","amp;dn":"Planet+Of+The+Apes+%28Hindi%29+-+Blu-Ray+-+720p+%7EJAGJIT639%7E","amp;tr":["udp%3A%2F%2Ftracker.openbittorrent.com%3A80","udp%3A%2F%2Fopen.demonii.com%3A1337","udp%3A%2F%2Ftracker.coppersurfer.tk%3A6969","udp%3A%2F%2Fexodus.desync.com%3A6969"],"infoHash":"7bc1be110188025edb6a8b6e8763b49a508e3d85","infoHashBuffer":{"type":"Buffer","data":[123,193,190,17,1,136,2,94,219,106,139,110,135,99,180,154,80,142,61,133]},"announce":[],"urlList":[]}}